<svg width="100" height="100" viewBox="0 0 100 100" xmlns="http://www.w3.org/2000/svg">
  <title>Stubia Favicon</title>
  
  <circle cx="50" cy="50" r="48" fill="#0050cb"/>
  <ellipse cx="35" cy="48" rx="12.5" ry="14.4" fill="#ffffff" opacity="0.95"/>
  <ellipse cx="65" cy="48" rx="12.5" ry="14.4" fill="#ffffff" opacity="0.95"/>
  <circle cx="35" cy="48" r="8.2" fill="#0F3A8A"/>
  <circle cx="65" cy="48" r="8.2" fill="#0F3A8A"/>
  <circle cx="35" cy="48" r="3.8" fill="#ffffff"/>
  <circle cx="65" cy="48" r="3.8" fill="#ffffff"/>
  <circle cx="36.7" cy="46.3" r="1.4" fill="#0050cb"/>
  <circle cx="66.7" cy="46.3" r="1.4" fill="#0050cb"/>
  <polygon points="50,54 45,62 55,62" fill="#22C47A"/>
  <path d="M20 22 Q30 10 40 20" fill="none" stroke="#22C47A" stroke-width="3" stroke-linecap="round"/>
  <path d="M60 20 Q70 10 80 22" fill="none" stroke="#22C47A" stroke-width="3" stroke-linecap="round"/>
  <path d="M16 68 Q32 86 50 81 Q68 86 84 68" fill="#0F3A8A" stroke="none"/>
  <path d="M24 77 Q36 90 50 86 Q64 90 76 77" fill="#22C47A" stroke="none"/>
</svg>
